<?xml version="1.0" encoding="UTF-8"?>
<!DOCTYPE svg PUBLIC "-//W3C//DTD SVG 1.1//EN" "http://www.w3.org/Graphics/SVG/1.1/DTD/svg11.dtd">
<!-- Creator: CorelDRAW 2020 (64-Bit) -->
<svg xmlns="http://www.w3.org/2000/svg" xml:space="preserve" width="150px" height="52px" version="1.1" style="shape-rendering:geometricPrecision; text-rendering:geometricPrecision; image-rendering:optimizeQuality; fill-rule:evenodd; clip-rule:evenodd"
viewBox="0 0 16.06 5.56"
 xmlns:xlink="http://www.w3.org/1999/xlink"
 xmlns:xodm="http://www.corel.com/coreldraw/odm/2003">
 <defs>
  <style type="text/css">
   <![CDATA[
    .fil17 {fill:none}
    .fil16 {fill:#D55660}
    .fil4 {fill:#F44B3B;fill-rule:nonzero;fill-opacity:0.301961}
    .fil1 {fill:#2AAF42;fill-opacity:0.501961}
    .fil6 {fill:#BA54FF;fill-rule:nonzero;fill-opacity:0.501961}
    .fil3 {fill:white;fill-rule:nonzero;fill-opacity:0.501961}
    .fil0 {fill:url(#id0)}
    .fil7 {fill:url(#id1);fill-rule:nonzero}
    .fil13 {fill:url(#id2);fill-rule:nonzero}
    .fil15 {fill:url(#id3);fill-rule:nonzero}
    .fil14 {fill:url(#id4);fill-rule:nonzero}
    .fil12 {fill:url(#id5);fill-rule:nonzero}
    .fil11 {fill:url(#id6);fill-rule:nonzero}
    .fil2 {fill:url(#id7);fill-rule:nonzero}
    .fil5 {fill:url(#id8);fill-rule:nonzero}
    .fil9 {fill:url(#id9);fill-rule:nonzero}
    .fil10 {fill:url(#id10);fill-rule:nonzero}
    .fil8 {fill:url(#id11);fill-rule:nonzero}
    .fil18 {fill:url(#id12);fill-rule:nonzero}
   ]]>
  </style>
  <linearGradient id="id0" gradientUnits="userSpaceOnUse" x1="3" y1="3.76" x2="3.26" y2="5.81">
   <stop offset="0" style="stop-opacity:1; stop-color:#009B45"/>
   <stop offset="0.509804" style="stop-opacity:1; stop-color:#6EBD4F"/>
   <stop offset="1" style="stop-opacity:1; stop-color:#DCDF5A"/>
  </linearGradient>
  <linearGradient id="id1" gradientUnits="userSpaceOnUse" x1="7.12" y1="2.6" x2="9.39" y2="0.76">
   <stop offset="0" style="stop-opacity:1; stop-color:#76549D"/>
   <stop offset="1" style="stop-opacity:1; stop-color:#EA544C"/>
  </linearGradient>
  <linearGradient id="id2" gradientUnits="userSpaceOnUse" xlink:href="#id1" x1="11.79" y1="5.33" x2="13.37" y2="4.31">
  </linearGradient>
  <linearGradient id="id3" gradientUnits="userSpaceOnUse" xlink:href="#id1" x1="14.51" y1="5.33" x2="16.18" y2="4.31">
  </linearGradient>
  <linearGradient id="id4" gradientUnits="userSpaceOnUse" xlink:href="#id1" x1="12.91" y1="5.22" x2="14.9" y2="3.6">
  </linearGradient>
  <linearGradient id="id5" gradientUnits="userSpaceOnUse" xlink:href="#id1" x1="10.18" y1="5.33" x2="12.17" y2="4.3">
  </linearGradient>
  <linearGradient id="id6" gradientUnits="userSpaceOnUse" xlink:href="#id1" x1="9.11" y1="5.33" x2="10.61" y2="4.31">
  </linearGradient>
  <linearGradient id="id7" gradientUnits="userSpaceOnUse" x1="5.76" y1="3.42" x2="0.25" y2="1.01">
   <stop offset="0" style="stop-opacity:1; stop-color:#FCEA00"/>
   <stop offset="0.929412" style="stop-opacity:1; stop-color:#EA544C"/>
   <stop offset="1" style="stop-opacity:1; stop-color:#EA544C"/>
  </linearGradient>
  <linearGradient id="id8" gradientUnits="userSpaceOnUse" xlink:href="#id1" x1="-0.3" y1="4.77" x2="4.76" y2="2.35">
  </linearGradient>
  <linearGradient id="id9" gradientUnits="userSpaceOnUse" xlink:href="#id1" x1="8.96" y1="2.73" x2="10.67" y2="1.57">
  </linearGradient>
  <linearGradient id="id10" gradientUnits="userSpaceOnUse" xlink:href="#id1" x1="7.27" y1="5.2" x2="9.68" y2="3.53">
  </linearGradient>
  <linearGradient id="id11" gradientUnits="userSpaceOnUse" xlink:href="#id1" x1="5.62" y1="3" x2="8.21" y2="0.73">
  </linearGradient>
  <linearGradient id="id12" gradientUnits="objectBoundingBox" x1="7.50638%" y1="0.526498%" x2="108.511%" y2="107.166%">
   <stop offset="0" style="stop-opacity:1; stop-color:#009B45"/>
   <stop offset="0.690196" style="stop-opacity:1; stop-color:#6EBD4F"/>
   <stop offset="1" style="stop-opacity:1; stop-color:#DCDF5A"/>
  </linearGradient>
 </defs>
 <g id="Layer_x0020_1">
  <metadata id="CorelCorpID_0Corel-Layer"/>
  <g id="_1841945600064">
   <polygon class="fil0" points="0,4.26 4.24,3.97 5.6,5.56 0,5.56 "/>
   <path class="fil1" d="M0 4.26l4.24 -0.29 0.11 0.13c-1.26,0.76 -2.05,0.33 -3.3,0.52 -0.5,0.07 -0.88,0.39 -1.05,0.94l0 0 0 -1.3z"/>
   <path class="fil2" d="M3.55 1.65c0.02,0.03 0.03,0.05 0.04,0.08 0.02,0.05 0.03,0.09 0.06,0.18 0.12,0.46 0.52,1.39 0.21,2.27 0,0 0.15,-0.08 0.37,-0.21l0.01 0c0.04,-0.02 0.08,-0.04 0.12,-0.07 0.02,-0.01 0.04,-0.02 0.06,-0.03 0.63,-0.38 1.01,-1 1.01,-1.81 0,-1.32 -0.95,-2.06 -2.49,-2.06l-2.94 0 0 0.26c0,0.55 0.44,1 0.99,1l1.59 0c0.41,0 0.78,0.08 0.97,0.39z"/>
   <path class="fil3" d="M0.23 0.44l0 -0.26 2.94 0c0.68,0 1.25,0.14 1.67,0.43 -0.43,-0.4 -1.08,-0.61 -1.9,-0.61l-2.94 0 0 0.26c0,0.37 0.2,0.7 0.5,0.87 -0.17,-0.18 -0.27,-0.42 -0.27,-0.69z"/>
   <path class="fil4" d="M5.42 1.87c-0.12,1.22 -0.76,1.51 -0.76,1.51 0.21,-1.4 -1.03,-1.54 -1.03,-1.54 0,0.02 0.01,0.04 0.02,0.07 0.12,0.46 0.52,1.39 0.21,2.27 0,0 0.15,-0.08 0.37,-0.21l0.01 0c0.04,-0.02 0.08,-0.04 0.12,-0.07 0.02,-0.01 0.04,-0.02 0.06,-0.03 0.63,-0.38 1.01,-1 1.01,-1.81 0,-0.07 0,-0.13 -0.01,-0.19z"/>
   <g>
    <path class="fil5" d="M3.65 1.91c0.01,0.08 0.02,0.17 0.02,0.27 0,0.74 -0.51,0.9 -1.09,0.9l-1.59 0c-0.55,0 -0.99,0.44 -0.99,0.99l0 1.17c0.4,-0.87 1.34,-0.81 1.71,-0.81l0.9 0c1.04,0 1.63,-0.46 1.63,-0.46 0,0 0.26,-0.47 0.14,-1.12 -0.14,-0.76 -0.73,-0.94 -0.73,-0.94z"/>
    <path class="fil3" d="M0.99 3.26l1.59 0c0.58,0 1.09,-0.16 1.09,-0.9 0,-0.03 0,-0.06 0,-0.09 -0.04,0.66 -0.54,0.81 -1.09,0.81l-1.59 0c-0.55,0 -0.99,0.44 -0.99,0.99l0 0.18c0,-0.55 0.44,-0.99 0.99,-0.99z"/>
    <path class="fil6" d="M1.71 4.43l0.9 0c1.04,0 1.63,-0.46 1.63,-0.46 0,0 0.26,-0.47 0.14,-1.12 -0.14,-0.76 -0.73,-0.94 -0.73,-0.94 0.01,0.08 0.02,0.17 0.02,0.27 0,0.01 0.43,0.13 0.5,0.95 0.06,0.71 -0.59,1.16 -1.52,1.17 -0.93,0 -1.66,-0.14 -2.17,0.27 -0.34,0.27 -0.45,0.44 -0.47,0.66 0.4,-0.86 1.33,-0.8 1.7,-0.8z"/>
   </g>
  </g>
  <path class="fil7" d="M7.65 2.79c-0.05,0.05 -0.11,0.09 -0.17,0.11 -0.07,0.03 -0.14,0.05 -0.23,0.05l0.07 -0.22c0.11,-0.01 0.21,-0.06 0.28,-0.15 0.08,-0.09 0.15,-0.25 0.22,-0.47l0.35 -1.1c0.03,-0.07 0.06,-0.17 0.09,-0.29 0.05,-0.2 0.14,-0.3 0.27,-0.3 0.09,0 0.15,0 0.18,0.02 0.03,0.01 0.05,0.03 0.05,0.06 0,0.03 -0.02,0.1 -0.07,0.2 -0.01,0.05 -0.03,0.08 -0.04,0.1l-0.54 1.39c0.17,-0.28 0.33,-0.49 0.48,-0.62 0.14,-0.13 0.28,-0.2 0.42,-0.2 0.07,0 0.13,0.02 0.17,0.06 0.03,0.04 0.05,0.09 0.05,0.16 0,0.07 -0.06,0.27 -0.19,0.6l-0.04 0.1c-0.03,0.07 -0.05,0.13 -0.07,0.19 -0.01,0.06 -0.02,0.1 -0.02,0.12 0,0.05 0.01,0.08 0.04,0.09 0.04,0.02 0.1,0.03 0.19,0.04l-0.06 0.22 -0.04 0c-0.19,0 -0.32,-0.02 -0.41,-0.07 -0.08,-0.05 -0.12,-0.13 -0.12,-0.23 0,-0.05 0.01,-0.12 0.04,-0.22 0.04,-0.1 0.09,-0.23 0.15,-0.39l0.02 -0.03c0.05,-0.13 0.08,-0.2 0.08,-0.23 0,-0.02 0,-0.03 -0.01,-0.04 -0.01,-0.01 -0.03,-0.01 -0.05,-0.01 -0.06,0 -0.17,0.08 -0.3,0.25 -0.14,0.17 -0.26,0.37 -0.37,0.61 -0.02,0.05 -0.04,0.11 -0.07,0.18 -0.04,0.13 -0.13,0.19 -0.27,0.19 -0.05,0 -0.08,0 -0.09,-0.01 -0.02,-0.01 -0.03,-0.03 -0.03,-0.05 0,-0.01 0,-0.02 0.01,-0.04 0,-0.02 0.01,-0.04 0.03,-0.07z"/>
  <path class="fil8" d="M7.55 0.77c-0.12,-0.03 -0.23,-0.05 -0.32,-0.07 -0.1,-0.01 -0.19,-0.02 -0.27,-0.02 -0.13,0 -0.24,0.02 -0.33,0.05 -0.09,0.03 -0.15,0.08 -0.19,0.14 -0.03,-0.02 -0.06,-0.04 -0.07,-0.06 -0.02,-0.03 -0.03,-0.06 -0.03,-0.1 0,-0.12 0.06,-0.21 0.18,-0.29 0.13,-0.07 0.3,-0.1 0.51,-0.1 0.13,0 0.28,0.01 0.44,0.04 0.16,0.03 0.35,0.07 0.56,0.13 -0.12,0.54 -0.24,0.98 -0.34,1.34 -0.1,0.35 -0.18,0.62 -0.25,0.79 -0.12,0.28 -0.26,0.49 -0.43,0.62 -0.17,0.14 -0.37,0.2 -0.61,0.2 -0.19,0 -0.35,-0.03 -0.46,-0.09 -0.11,-0.07 -0.16,-0.15 -0.16,-0.27 0,-0.05 0.01,-0.09 0.03,-0.13 0.02,-0.03 0.05,-0.06 0.09,-0.08 0.07,0.08 0.14,0.14 0.21,0.17 0.08,0.04 0.17,0.05 0.27,0.05 0.15,0 0.27,-0.04 0.37,-0.12 0.1,-0.08 0.19,-0.21 0.27,-0.4 0.06,-0.14 0.14,-0.37 0.23,-0.69 0.1,-0.33 0.2,-0.69 0.3,-1.11z"/>
  <path class="fil9" d="M9.89 2.43c0.11,-0.08 0.21,-0.18 0.29,-0.31 0.08,-0.13 0.12,-0.24 0.12,-0.34 0,-0.04 -0.01,-0.08 -0.03,-0.11 -0.03,-0.02 -0.06,-0.03 -0.11,-0.03 -0.09,0 -0.17,0.05 -0.24,0.16 -0.08,0.11 -0.11,0.24 -0.11,0.38 0,0.05 0.01,0.1 0.02,0.14 0.01,0.04 0.03,0.08 0.06,0.11zm-0.17 0.35c-0.11,0.06 -0.22,0.1 -0.33,0.12 -0.11,0.03 -0.22,0.05 -0.33,0.05l0.07 -0.22c0.07,-0.01 0.15,-0.02 0.21,-0.04 0.07,-0.01 0.13,-0.03 0.19,-0.06 -0.04,-0.06 -0.07,-0.12 -0.09,-0.19 -0.02,-0.07 -0.03,-0.16 -0.03,-0.25 0,-0.23 0.07,-0.42 0.23,-0.59 0.15,-0.16 0.33,-0.25 0.54,-0.25 0.11,0 0.21,0.04 0.27,0.11 0.07,0.07 0.11,0.16 0.11,0.29 0,0.13 -0.05,0.27 -0.15,0.43 -0.1,0.16 -0.23,0.3 -0.39,0.42 0.05,0.05 0.1,0.08 0.16,0.1 0.05,0.02 0.12,0.03 0.2,0.03l0.02 0 -0.06 0.22 -0.05 0c-0.12,0 -0.23,-0.01 -0.33,-0.04 -0.09,-0.03 -0.18,-0.07 -0.24,-0.13z"/>
  <g id="_1841945604432">
   <path class="fil10" d="M8.27 4c-0.17,0.22 -0.31,0.43 -0.41,0.64 -0.11,0.2 -0.16,0.35 -0.16,0.46 0,0.02 0.01,0.04 0.02,0.05 0.01,0.01 0.02,0.02 0.04,0.02 0.06,0 0.14,-0.11 0.23,-0.32 0.09,-0.2 0.19,-0.49 0.28,-0.85zm0.27 0.2l0.03 0c0.03,0 0.07,0 0.1,0.01 0.04,0 0.08,0.01 0.12,0.02 0.12,-0.1 0.21,-0.19 0.28,-0.28 0.06,-0.1 0.09,-0.18 0.09,-0.26 0,-0.06 -0.01,-0.1 -0.04,-0.13 -0.03,-0.03 -0.07,-0.05 -0.13,-0.05 -0.05,0 -0.1,0.02 -0.15,0.04 -0.05,0.03 -0.11,0.07 -0.17,0.12 -0.02,0.08 -0.04,0.17 -0.06,0.25 -0.02,0.09 -0.04,0.18 -0.07,0.28zm-0.1 0.35c-0.11,0.34 -0.22,0.59 -0.33,0.75 -0.12,0.15 -0.25,0.23 -0.39,0.23 -0.1,0 -0.17,-0.03 -0.23,-0.1 -0.05,-0.06 -0.08,-0.14 -0.08,-0.26 0,-0.19 0.08,-0.42 0.24,-0.68 0.16,-0.26 0.38,-0.52 0.65,-0.77 0,-0.03 0.01,-0.07 0.01,-0.12 0.02,-0.11 0.03,-0.19 0.06,-0.21 0.02,-0.03 0.07,-0.06 0.14,-0.09 0.08,-0.04 0.13,-0.06 0.16,-0.06 0.02,0 0.03,0.01 0.04,0.02 0,0.01 0.01,0.03 0.01,0.06 0,0.01 0,0.02 -0.01,0.04 0,0.02 0,0.04 0,0.07 0.07,-0.07 0.14,-0.12 0.22,-0.16 0.07,-0.03 0.14,-0.04 0.22,-0.04 0.11,0 0.2,0.03 0.27,0.09 0.06,0.07 0.1,0.15 0.1,0.26 0,0.13 -0.05,0.25 -0.13,0.38 -0.09,0.12 -0.22,0.25 -0.39,0.37 0.07,0.03 0.12,0.07 0.15,0.12 0.04,0.05 0.05,0.1 0.05,0.17 0,0.07 -0.02,0.17 -0.06,0.31 -0.05,0.13 -0.07,0.23 -0.07,0.28 0,0.04 0.01,0.07 0.04,0.08 0.02,0.02 0.08,0.03 0.16,0.03l-0.06 0.2 -0.04 0c-0.16,0 -0.28,-0.02 -0.36,-0.07 -0.09,-0.05 -0.13,-0.12 -0.13,-0.22 0,-0.07 0.03,-0.18 0.08,-0.34 0.05,-0.16 0.08,-0.27 0.08,-0.35 0,-0.02 0,-0.04 -0.01,-0.05 -0.01,-0.02 -0.02,-0.03 -0.04,-0.04 -0.04,0.03 -0.08,0.05 -0.14,0.07 -0.06,0.01 -0.13,0.02 -0.21,0.03z"/>
   <path class="fil11" d="M9.92 5.07c0.1,-0.07 0.19,-0.16 0.26,-0.27 0.07,-0.12 0.1,-0.21 0.1,-0.3 0,-0.04 -0.01,-0.07 -0.03,-0.1 -0.02,-0.02 -0.05,-0.03 -0.09,-0.03 -0.08,0 -0.15,0.05 -0.21,0.14 -0.06,0.1 -0.1,0.21 -0.1,0.34 0,0.05 0.01,0.09 0.02,0.12 0.01,0.04 0.03,0.07 0.05,0.1zm-0.15 0.31c-0.09,0.04 -0.19,0.08 -0.28,0.1 -0.1,0.03 -0.19,0.04 -0.29,0.04l0.06 -0.2c0.06,0 0.13,-0.01 0.18,-0.02 0.06,-0.02 0.12,-0.04 0.17,-0.06 -0.04,-0.05 -0.06,-0.1 -0.08,-0.17 -0.02,-0.06 -0.03,-0.13 -0.03,-0.22 0,-0.19 0.07,-0.36 0.2,-0.51 0.14,-0.14 0.29,-0.21 0.48,-0.21 0.1,0 0.18,0.03 0.24,0.09 0.06,0.06 0.09,0.14 0.09,0.25 0,0.11 -0.05,0.24 -0.13,0.38 -0.09,0.14 -0.2,0.26 -0.34,0.37 0.04,0.04 0.09,0.06 0.13,0.08 0.05,0.02 0.11,0.02 0.18,0.02l0.02 0 -0.05 0.2 -0.04 0c-0.11,0 -0.21,-0.01 -0.29,-0.03 -0.09,-0.03 -0.16,-0.06 -0.22,-0.11z"/>
   <path class="fil12" d="M10.64 5.38c-0.04,0.04 -0.09,0.08 -0.15,0.1 -0.05,0.03 -0.12,0.04 -0.19,0.04l0.06 -0.2c0.1,0 0.19,-0.05 0.26,-0.14 0.07,-0.09 0.13,-0.24 0.19,-0.45 0.03,-0.1 0.06,-0.21 0.09,-0.35 0.04,-0.18 0.1,-0.27 0.19,-0.27 0.07,0 0.13,0 0.16,0.01 0.03,0.01 0.05,0.02 0.05,0.05 0,0.01 -0.03,0.1 -0.09,0.25 -0.06,0.15 -0.12,0.3 -0.16,0.44 0.15,-0.25 0.29,-0.43 0.41,-0.55 0.13,-0.11 0.25,-0.17 0.38,-0.17 0.06,0 0.11,0.02 0.14,0.05 0.03,0.04 0.05,0.08 0.05,0.14 0,0.07 -0.06,0.24 -0.17,0.52l-0.03 0.09c-0.03,0.06 -0.05,0.12 -0.06,0.17 -0.02,0.05 -0.02,0.09 -0.02,0.11 0,0.04 0.01,0.06 0.04,0.08 0.02,0.01 0.08,0.02 0.16,0.02l-0.06 0.2 -0.03 0c-0.16,0 -0.28,-0.02 -0.35,-0.06 -0.08,-0.04 -0.12,-0.11 -0.12,-0.2 0,-0.05 0.02,-0.11 0.05,-0.2 0.03,-0.09 0.07,-0.2 0.13,-0.33l0.01 -0.03c0.05,-0.11 0.07,-0.18 0.07,-0.2 0,-0.02 0,-0.03 -0.01,-0.04 -0.01,0 -0.02,-0.01 -0.04,-0.01 -0.06,0 -0.15,0.08 -0.27,0.22 -0.12,0.15 -0.22,0.33 -0.31,0.54 -0.02,0.04 -0.04,0.09 -0.06,0.15 -0.05,0.11 -0.13,0.17 -0.24,0.17 -0.04,0 -0.07,0 -0.09,-0.01 -0.01,-0.01 -0.02,-0.02 -0.02,-0.04 0,-0.01 0,-0.02 0.01,-0.04 0,-0.02 0.01,-0.04 0.02,-0.06z"/>
   <path class="fil13" d="M11.88 5.52l0.06 -0.2c0.06,0 0.11,-0.01 0.16,-0.02 0.06,-0.02 0.11,-0.04 0.15,-0.07 -0.02,-0.04 -0.04,-0.08 -0.05,-0.13 -0.01,-0.05 -0.02,-0.11 -0.02,-0.17 0,-0.22 0.08,-0.41 0.23,-0.56 0.15,-0.16 0.33,-0.24 0.52,-0.24 0.1,0 0.18,0.02 0.24,0.06 0.06,0.05 0.09,0.11 0.09,0.19 0,0.05 -0.02,0.09 -0.05,0.12 -0.03,0.04 -0.06,0.06 -0.1,0.06 -0.02,0 -0.03,-0.01 -0.04,-0.01 0,-0.01 -0.01,-0.02 -0.01,-0.03 0,-0.05 -0.01,-0.08 -0.03,-0.1 -0.02,-0.03 -0.05,-0.04 -0.1,-0.04 -0.09,0 -0.18,0.06 -0.26,0.16 -0.08,0.11 -0.12,0.23 -0.12,0.37 0,0.14 0.04,0.25 0.13,0.31 0.09,0.07 0.23,0.1 0.42,0.1l-0.06 0.2c-0.01,0 -0.03,0.01 -0.05,0.01 0,0 0,0 0,0 -0.14,0 -0.25,-0.01 -0.36,-0.04 -0.1,-0.03 -0.18,-0.07 -0.25,-0.12 -0.06,0.05 -0.14,0.08 -0.22,0.11 -0.09,0.03 -0.18,0.04 -0.28,0.04z"/>
   <path class="fil14" d="M13.37 5.38c-0.04,0.04 -0.09,0.08 -0.15,0.1 -0.06,0.03 -0.12,0.04 -0.19,0.04l0.05 -0.2c0.1,0 0.18,-0.04 0.25,-0.12 0.07,-0.08 0.13,-0.22 0.19,-0.42l0.31 -0.95c0.02,-0.07 0.05,-0.16 0.07,-0.26 0.05,-0.17 0.13,-0.26 0.24,-0.26 0.08,0 0.13,0 0.16,0.01 0.03,0.01 0.04,0.03 0.04,0.06 0,0.02 -0.02,0.08 -0.06,0.18 -0.01,0.03 -0.02,0.06 -0.03,0.08l-0.48 1.22c0.15,-0.25 0.29,-0.43 0.42,-0.55 0.13,-0.11 0.25,-0.17 0.37,-0.17 0.06,0 0.11,0.02 0.15,0.05 0.03,0.04 0.05,0.08 0.05,0.14 0,0.07 -0.06,0.24 -0.17,0.53l-0.04 0.09c-0.02,0.05 -0.04,0.11 -0.06,0.16 -0.01,0.05 -0.02,0.09 -0.02,0.11 0,0.04 0.02,0.06 0.04,0.08 0.03,0.01 0.08,0.02 0.17,0.02l-0.06 0.2 -0.03 0c-0.16,0 -0.28,-0.02 -0.36,-0.06 -0.07,-0.04 -0.11,-0.11 -0.11,-0.2 0,-0.05 0.01,-0.11 0.04,-0.2 0.03,-0.09 0.07,-0.2 0.13,-0.33l0.01 -0.03c0.05,-0.11 0.08,-0.18 0.08,-0.2 0,-0.02 -0.01,-0.03 -0.01,-0.04 -0.01,0 -0.03,-0.01 -0.04,-0.01 -0.06,0 -0.15,0.08 -0.27,0.22 -0.12,0.15 -0.23,0.33 -0.32,0.54 -0.02,0.04 -0.04,0.09 -0.06,0.15 -0.04,0.11 -0.12,0.17 -0.24,0.17 -0.04,0 -0.07,0 -0.08,-0.01 -0.02,-0.01 -0.02,-0.02 -0.02,-0.04 0,-0.01 0,-0.02 0,-0.04 0.01,-0.02 0.02,-0.04 0.03,-0.06z"/>
   <path class="fil15" d="M15.8 4.61c-0.05,-0.01 -0.09,-0.03 -0.11,-0.05 -0.03,-0.03 -0.04,-0.07 -0.04,-0.12 0,-0.07 0.02,-0.13 0.06,-0.17 0.04,-0.05 0.09,-0.07 0.15,-0.07 0.06,0 0.11,0.03 0.15,0.08 0.03,0.05 0.05,0.13 0.05,0.22 0,0.12 -0.02,0.24 -0.05,0.36 -0.04,0.13 -0.09,0.24 -0.16,0.34 -0.08,0.11 -0.15,0.19 -0.24,0.25 -0.08,0.05 -0.17,0.08 -0.27,0.08 -0.07,0 -0.13,-0.01 -0.18,-0.03 -0.05,-0.02 -0.09,-0.04 -0.13,-0.08 -0.06,0.03 -0.13,0.06 -0.2,0.07 -0.07,0.02 -0.14,0.03 -0.23,0.03l0.06 -0.2c0.06,0 0.1,-0.01 0.15,-0.02 0.04,-0.01 0.08,-0.02 0.11,-0.04 -0.01,-0.03 -0.02,-0.07 -0.02,-0.1 -0.01,-0.04 -0.01,-0.08 -0.01,-0.12 0,-0.11 0.02,-0.22 0.06,-0.33 0.05,-0.12 0.11,-0.22 0.19,-0.31 0.06,-0.08 0.15,-0.15 0.24,-0.2 0.09,-0.05 0.18,-0.07 0.26,-0.07 0.02,0 0.04,0 0.05,0.01 0.01,0.01 0.02,0.02 0.02,0.04 0,0.02 -0.02,0.05 -0.07,0.1 -0.05,0.05 -0.08,0.08 -0.11,0.12 -0.1,0.12 -0.18,0.25 -0.23,0.38 -0.06,0.13 -0.08,0.25 -0.08,0.36 0,0.06 0.01,0.1 0.03,0.13 0.03,0.03 0.06,0.05 0.1,0.05 0.1,0 0.2,-0.08 0.3,-0.22 0.09,-0.15 0.14,-0.31 0.15,-0.49z"/>
  </g>
  <g id="_1841945607888">
   <path class="fil16" d="M10.4 2.74c3.71,-0.12 1.9,-0.12 5.44,-0.01l-2.63 0.1 -2.81 -0.09z"/>
  </g>
  <path class="fil17" d="M10.4 2.74c1.29,0 4.43,0.01 5.44,-0.01"/>
  <g id="_1841945606976">
   <path class="fil16" d="M10.4 2.97c3.71,-0.12 1.9,-0.12 5.44,-0.01l-2.63 0.1 -2.81 -0.09z"/>
  </g>
  <path class="fil17" d="M10.4 2.97c1.29,0 4.43,0.01 5.44,-0.01"/>
  <g id="_1841945605488">
   <path class="fil16" d="M11.04 4.02c-0.1,-2.13 -0.11,-1.09 0.02,-3.13l0.09 1.52 -0.11 1.61z"/>
  </g>
  <path class="fil17" d="M11.04 4.02c0.01,-0.74 0.03,-2.54 0.02,-3.13"/>
  <g id="_1841945609376">
   <path class="fil16" d="M11.29 4.02c-0.1,-2.13 -0.11,-1.09 0.01,-3.13l0.1 1.52 -0.11 1.61z"/>
  </g>
  <path class="fil17" d="M11.29 4.02c0.01,-0.74 0.03,-2.54 0.01,-3.13"/>
  <path class="fil18" d="M11.7 1.54l0.13 0 0 0.71 -0.13 0 0 -0.71zm0.04 0.58l0.43 0 0 0.13 -0.43 0 0 -0.13zm0 -0.29l0.38 0 0 0.13 -0.38 0 0 -0.13zm0 -0.29l0.43 0 0 0.13 -0.43 0 0 -0.13z"/>
  <path id="1" class="fil18" d="M12.55 1.54l0.14 0 0 0.71 -0.14 0 0 -0.71zm-0.11 0.72c-0.04,0 -0.07,-0.01 -0.09,-0.03 -0.03,-0.02 -0.05,-0.04 -0.06,-0.07 -0.02,-0.04 -0.02,-0.08 -0.02,-0.12l0 -0.08c0,-0.05 0,-0.09 0.02,-0.12 0.01,-0.04 0.03,-0.06 0.06,-0.08 0.02,-0.01 0.05,-0.02 0.09,-0.02 0.02,0 0.05,0 0.07,0.02 0.02,0.02 0.04,0.04 0.05,0.07l-0.01 0.11c0,-0.02 0,-0.03 0,-0.04 -0.01,-0.01 -0.02,-0.02 -0.03,-0.03 -0.01,-0.01 -0.02,-0.01 -0.04,-0.01 -0.03,0 -0.04,0.01 -0.06,0.03 -0.01,0.01 -0.02,0.04 -0.02,0.07l0 0.08c0,0.03 0.01,0.05 0.02,0.07 0.02,0.01 0.03,0.02 0.06,0.02 0.02,0 0.03,0 0.04,-0.01 0.01,0 0.02,-0.01 0.03,-0.02 0,-0.02 0,-0.03 0,-0.05l0.01 0.12c-0.01,0.03 -0.03,0.05 -0.05,0.06 -0.02,0.02 -0.04,0.03 -0.07,0.03z"/>
  <path id="2" class="fil18" d="M13.11 1.74l0.13 0 0 0.51 -0.13 0 0 -0.51zm-0.16 0.31c0,0.02 0.01,0.04 0.02,0.06 0.02,0.01 0.04,0.02 0.06,0.02 0.03,0 0.05,-0.01 0.06,-0.02 0.01,-0.02 0.02,-0.04 0.02,-0.06l0.01 0.11c-0.01,0.03 -0.03,0.05 -0.05,0.07 -0.02,0.02 -0.05,0.03 -0.08,0.03 -0.06,0 -0.1,-0.02 -0.13,-0.06 -0.03,-0.03 -0.04,-0.08 -0.04,-0.14l0 -0.32 0.13 0 0 0.31z"/>
  <path id="3" class="fil18" d="M13.59 2.26c-0.05,0 -0.09,-0.01 -0.13,-0.03 -0.03,-0.02 -0.06,-0.05 -0.07,-0.08 -0.02,-0.04 -0.03,-0.08 -0.03,-0.13l0 -0.05c0,-0.05 0.01,-0.09 0.03,-0.13 0.01,-0.03 0.04,-0.06 0.07,-0.08 0.04,-0.01 0.08,-0.02 0.13,-0.02 0.02,0 0.05,0 0.07,0.01 0.03,0 0.05,0.01 0.07,0.02 0.02,0.02 0.04,0.03 0.05,0.05l0 0 -0.09 0.08 0 0c-0.01,-0.01 -0.02,-0.02 -0.04,-0.03 -0.02,0 -0.03,-0.01 -0.05,-0.01 -0.04,0 -0.06,0.01 -0.08,0.03 -0.02,0.02 -0.03,0.05 -0.03,0.08l0 0.05c0,0.04 0.01,0.06 0.03,0.08 0.02,0.02 0.04,0.03 0.08,0.03 0.02,0 0.03,-0.01 0.05,-0.01 0.02,-0.01 0.03,-0.02 0.04,-0.03l0 0 0.09 0.09 0 0c-0.01,0.01 -0.03,0.03 -0.05,0.04 -0.02,0.01 -0.04,0.02 -0.07,0.03 -0.02,0 -0.05,0.01 -0.07,0.01z"/>
  <path id="4" class="fil18" d="M14.15 1.93c0,-0.02 -0.01,-0.04 -0.03,-0.06 -0.01,-0.01 -0.03,-0.01 -0.06,-0.01 -0.02,0 -0.04,0 -0.06,0 -0.02,0.01 -0.03,0.02 -0.05,0.03l-0.08 -0.08c0.02,-0.02 0.05,-0.04 0.08,-0.05 0.03,-0.02 0.07,-0.02 0.11,-0.02 0.04,0 0.08,0 0.11,0.02 0.03,0.01 0.06,0.03 0.07,0.06 0.02,0.03 0.03,0.06 0.03,0.1l0 0.33 -0.12 0 0 -0.32zm-0.14 0.33c-0.06,0 -0.1,-0.02 -0.12,-0.04 -0.03,-0.03 -0.04,-0.07 -0.04,-0.12 0,-0.05 0.01,-0.09 0.04,-0.11 0.03,-0.03 0.07,-0.04 0.14,-0.04l0.12 0 0.01 0.1 -0.13 0c-0.02,0 -0.04,0.01 -0.05,0.01 -0.01,0.01 -0.01,0.02 -0.01,0.04 0,0.02 0,0.03 0.01,0.04 0.02,0 0.04,0.01 0.06,0.01 0.04,0 0.06,-0.01 0.08,-0.01 0.02,-0.01 0.03,-0.02 0.03,-0.04l0.01 0.07c0,0.02 -0.01,0.04 -0.03,0.05 -0.01,0.01 -0.03,0.02 -0.05,0.03 -0.03,0 -0.05,0.01 -0.07,0.01z"/>
  <path id="5" class="fil18" d="M14.54 2.25c-0.04,0 -0.08,-0.01 -0.1,-0.03 -0.02,-0.03 -0.03,-0.06 -0.03,-0.1l0 -0.52 0.14 0 0 0.48c0,0.02 0,0.03 0,0.03 0.01,0.01 0.02,0.01 0.02,0.01l0.04 0 0 0.13 -0.07 0zm-0.18 -0.51l0.25 0 0 0.12 -0.25 0 0 -0.12z"/>
  <path id="6" class="fil18" d="M14.72 1.54l0.13 0 0 0.13 -0.13 0 0 -0.13zm0 0.2l0.13 0 0 0.51 -0.13 0 0 -0.51z"/>
  <path id="7" class="fil18" d="M15.18 2.26c-0.05,0 -0.09,-0.01 -0.12,-0.03 -0.03,-0.02 -0.06,-0.04 -0.07,-0.07 -0.02,-0.04 -0.03,-0.08 -0.03,-0.12l0 -0.09c0,-0.04 0.01,-0.08 0.03,-0.11 0.01,-0.04 0.04,-0.06 0.07,-0.08 0.03,-0.02 0.07,-0.02 0.12,-0.02 0.04,0 0.08,0 0.12,0.02 0.03,0.02 0.05,0.04 0.07,0.08 0.02,0.03 0.03,0.07 0.03,0.11l0 0.09c0,0.04 -0.01,0.08 -0.03,0.12 -0.02,0.03 -0.04,0.05 -0.07,0.07 -0.04,0.02 -0.08,0.03 -0.12,0.03zm0 -0.13c0.02,0 0.05,-0.01 0.06,-0.03 0.02,-0.01 0.02,-0.03 0.02,-0.06l0 -0.09c0,-0.02 0,-0.05 -0.02,-0.06 -0.01,-0.02 -0.04,-0.03 -0.06,-0.03 -0.03,0 -0.05,0.01 -0.06,0.03 -0.02,0.01 -0.03,0.04 -0.03,0.06l0 0.09c0,0.03 0.01,0.05 0.03,0.06 0.01,0.02 0.03,0.03 0.06,0.03z"/>
  <path id="8" class="fil18" d="M15.52 1.74l0.13 0 0 0.51 -0.13 0 0 -0.51zm0.29 0.2c0,-0.02 -0.01,-0.04 -0.02,-0.05 -0.02,-0.02 -0.04,-0.03 -0.06,-0.03 -0.03,0 -0.05,0.01 -0.06,0.03 -0.01,0.01 -0.02,0.03 -0.02,0.05l-0.01 -0.11c0.02,-0.03 0.03,-0.05 0.06,-0.07 0.02,-0.02 0.04,-0.02 0.08,-0.02 0.05,0 0.09,0.01 0.12,0.05 0.03,0.04 0.04,0.09 0.04,0.15l0 0.31 -0.13 0 0 -0.31z"/>
 </g>
</svg>
